<svg width="100" height="102" viewBox="0 0 100 102" fill="none" xmlns="http://www.w3.org/2000/svg">
<g id="Property 1=badminton">
<path id="Vector 205" d="M34.9866 90.5331V79.741C37.1614 78.9836 43.7552 77.5068 52.7324 77.6583C55.0812 77.6583 69.1734 78.27 69.1734 79.3623C69.1734 80.309 69.5214 87.1882 69.1734 90.5331C67.7816 93.5625 62.4926 99.697 52.4715 100C39.945 99.4319 34.9866 92.8052 34.9866 90.5331Z" stroke="#528F7C" stroke-width="4"/>
<path id="Vector 208" d="M33.4168 66.4877C39.0711 63.3952 54.3986 59.0657 70.4742 66.4877" stroke="#528F7C" stroke-width="4"/>
<path id="Vector 206" d="M68.9105 73.8719C55.549 70.0851 40.552 72.2941 34.7238 73.8719V79.7413C39.3342 78.2897 52.6261 76.1439 68.9105 79.1733V73.8719Z" stroke="#528F7C" stroke-width="4"/>
<path id="Rectangle 4171" d="M14.7063 7.51233C16.6342 7.96029 19.0587 9.10219 22.0276 11.4076L34.2846 44.0312L28.5423 54.1541L17.0712 47.4702L4.79011 14.7827C5.52145 12.1378 7.20143 9.20673 9.80715 7.93594C11.1237 7.29389 12.7166 7.05002 14.7063 7.51233Z" stroke="#528F7C" stroke-width="4"/>
<path id="Rectangle 4172" d="M39.4492 3.77697C41.2562 4.44903 43.3848 5.85919 45.7821 8.46474L50.534 42.0215L42.5681 51.3603L32.7213 43.3842L27.9598 9.75916C29.2712 7.25558 31.5814 4.56605 34.4538 3.61512C35.9196 3.12987 37.5718 3.07877 39.4492 3.77697Z" stroke="#528F7C" stroke-width="4"/>
<path id="Rectangle 4173" d="M65.098 3.25986C66.7443 4.1234 68.5526 5.75099 70.376 8.58729L68.0571 42.2673L58.2265 50.6248L50.158 41.6536L52.4818 7.90471C54.3004 5.57699 57.1453 3.17328 60.1856 2.54904C61.739 2.23008 63.3861 2.36193 65.098 3.25986Z" stroke="#528F7C" stroke-width="4"/>
<path id="Rectangle 4174" d="M91.7201 8.06975C93.1494 9.11254 94.5753 10.9339 95.7468 13.9626L85.9441 46.9861L74.4086 54.0658L68.4563 44.2886L78.2785 11.1993C80.6002 9.10273 83.9479 7.06229 87.0749 6.8035C88.6616 6.67219 90.2408 6.99051 91.7201 8.06975Z" stroke="#528F7C" stroke-width="4"/>
<path id="Vector 207" d="M19.3269 28.4314L29.414 56.6425M35.5069 73.6828L29.414 56.6425M39.6824 27.2954L45.4237 71.6001M60.5598 27.2954L56.1234 71.6001M81.4372 29.1888L77.4117 42.9157L73.3861 56.6425M68.3888 73.6828L73.3861 56.6425M29.414 56.6425C35.9943 53.8656 54.0012 49.9779 73.3861 56.6425" stroke="#528F7C" stroke-width="4"/>
</g>
</svg>
