<svg width="22" height="22" viewBox="0 0 22 22" fill="none" xmlns="http://www.w3.org/2000/svg">
<g id="cart">
<g id="Union">
<path fill-rule="evenodd" clip-rule="evenodd" d="M1.75 0.8125C1.19772 0.8125 0.75 1.26022 0.75 1.8125C0.75 2.36478 1.19772 2.8125 1.75 2.8125H4.43032L5.13729 6.34474C5.14155 6.37173 5.1469 6.39836 5.15327 6.42458L6.61433 13.7244C6.74021 14.3571 7.08451 14.9254 7.58704 15.33C8.08703 15.7325 8.71197 15.9473 9.35353 15.9375H17.8415C18.483 15.9473 19.108 15.7325 19.608 15.33C20.1107 14.9253 20.4551 14.3566 20.5809 13.7236L21.9823 6.37483C22.0381 6.08208 21.9605 5.77968 21.7705 5.55005C21.5805 5.32043 21.298 5.1875 21 5.1875H6.94534L6.23055 1.61624C6.13701 1.14889 5.72663 0.8125 5.25 0.8125H1.75ZM8.57584 13.3339L7.34564 7.1875H19.7913L18.6185 13.337C18.5838 13.5084 18.4901 13.6623 18.3538 13.772C18.2167 13.8824 18.0452 13.9411 17.8692 13.9377L17.85 13.9375H9.345L9.32584 13.9377C9.14985 13.9411 8.97828 13.8824 8.84117 13.772C8.70405 13.6617 8.61013 13.5066 8.57584 13.3339Z" fill="#528F7C"/>
<path d="M8.75 17.4375C7.71447 17.4375 6.875 18.277 6.875 19.3125C6.875 20.348 7.71447 21.1875 8.75 21.1875C9.78553 21.1875 10.625 20.348 10.625 19.3125C10.625 18.277 9.78553 17.4375 8.75 17.4375Z" fill="#528F7C"/>
<path d="M18.375 17.4375C17.3395 17.4375 16.5 18.277 16.5 19.3125C16.5 20.348 17.3395 21.1875 18.375 21.1875C19.4105 21.1875 20.25 20.348 20.25 19.3125C20.25 18.277 19.4105 17.4375 18.375 17.4375Z" fill="#528F7C"/>
</g>
</g>
</svg>
