<svg width="22" height="20" viewBox="0 0 22 20" fill="none" xmlns="http://www.w3.org/2000/svg">
<g id="like-card">
<path id="Vector (Stroke)" fill-rule="evenodd" clip-rule="evenodd" d="M11.25 4.64371L9.80553 3.13536C7.97488 1.22375 4.48978 1.81582 3.20571 4.36328C2.62569 5.51397 2.44077 7.2659 3.61887 9.62696C4.72627 11.8463 7.03252 14.5642 11.2499 17.5689C15.4674 14.5639 17.7737 11.8459 18.8811 9.62641C20.0592 7.26526 19.8743 5.51338 19.2943 4.36281C18.0103 1.81569 14.5253 1.22359 12.6945 3.13536L11.25 4.64371ZM11.25 20C-8.72296 6.59391 4.84526 -3.89496 10.8829 1.40055C11.0087 1.51083 11.1312 1.62797 11.25 1.75206C11.3688 1.62796 11.4913 1.51081 11.6171 1.40052C17.6548 -3.89497 31.2229 6.59263 11.25 20Z" fill="#528F7C"/>
</g>
</svg>
