<svg width="101" height="100" viewBox="0 0 101 100" fill="none" xmlns="http://www.w3.org/2000/svg">
<g id="Property 1=bascketball">
<path id="Ellipse 31" d="M98.25 49.9999C98.25 76.5095 76.7597 97.9998 50.25 97.9998C23.7403 97.9998 2.25 76.5095 2.25 49.9999C2.25 23.4903 23.7403 2 50.25 2C76.7597 2 98.25 23.4903 98.25 49.9999Z" stroke="#528F7C" stroke-width="4"/>
<path id="Vector 201" d="M19.1168 11.3206C39.4574 24.8985 71.4459 64.3976 83.2678 86.7921" stroke="#528F7C" stroke-width="4"/>
<path id="Vector 202" d="M51.8652 3.94336C52.0898 8.86717 48.8941 19.7704 38.557 29.1219C25.7541 40.7041 10.9859 41.5434 4.19138 42.5505M98.1914 50.6076C94.4853 46.5791 72.5856 40.8501 59.9512 52.2862C37.8831 72.2612 47.4853 97.1041 47.9907 97.9434M14.4674 80.8219C24.7995 63.085 53.1792 25.6641 84.0408 17.8755" stroke="#528F7C" stroke-width="4"/>
</g>
</svg>
